<svg width="300" height="200" viewBox="0 0 300 200" fill="none" xmlns="http://www.w3.org/2000/svg">
  <defs>
    <linearGradient id="clinicBg10" x1="0%" y1="0%" x2="100%" y2="100%">
      <stop offset="0%" style="stop-color:#FFF8F0;stop-opacity:1" />
      <stop offset="100%" style="stop-color:#F0F8FF;stop-opacity:1" />
    </linearGradient>
  </defs>
  
  <!-- Background -->
  <rect width="300" height="200" fill="url(#clinicBg10)"/>
  
  <!-- Building silhouette -->
  <rect x="45" y="75" width="210" height="125" fill="#2A6EF3" opacity="0.1"/>
  <rect x="65" y="55" width="170" height="145" fill="#2A6EF3" opacity="0.15"/>
  
  <!-- Windows -->
  <rect x="85" y="75" width="22" height="28" fill="#2A6EF3" opacity="0.3" rx="2"/>
  <rect x="117" y="75" width="22" height="28" fill="#2A6EF3" opacity="0.3" rx="2"/>
  <rect x="149" y="75" width="22" height="28" fill="#2A6EF3" opacity="0.3" rx="2"/>
  <rect x="181" y="75" width="22" height="28" fill="#2A6EF3" opacity="0.3" rx="2"/>
  
  <rect x="85" y="118" width="22" height="28" fill="#2A6EF3" opacity="0.3" rx="2"/>
  <rect x="117" y="118" width="22" height="28" fill="#2A6EF3" opacity="0.3" rx="2"/>
  <rect x="149" y="118" width="22" height="28" fill="#2A6EF3" opacity="0.3" rx="2"/>
  <rect x="181" y="118" width="22" height="28" fill="#2A6EF3" opacity="0.3" rx="2"/>
  
  <!-- Door -->
  <rect x="132" y="158" width="36" height="42" fill="#2A6EF3" opacity="0.4" rx="3"/>
  
  <!-- Medical cross sign -->
  <circle cx="225" cy="95" r="16" fill="#27AE60" opacity="0.8"/>
  <rect x="222" y="87" width="6" height="16" fill="white" rx="1"/>
  <rect x="217" y="92" width="16" height="6" fill="white" rx="1"/>
  
  <!-- Text overlay -->
  <text x="150" y="28" text-anchor="middle" fill="#2A6EF3" font-family="Arial, sans-serif" font-size="15" font-weight="600">Medical Practice</text>
</svg>