<svg width="300" height="200" viewBox="0 0 300 200" xmlns="http://www.w3.org/2000/svg">
  <defs>
    <linearGradient id="buildingGrad7" x1="0%" y1="0%" x2="100%" y2="100%">
      <stop offset="0%" style="stop-color:#FFF8E1;stop-opacity:1" />
      <stop offset="100%" style="stop-color:#FFECB3;stop-opacity:1" />
    </linearGradient>
    <linearGradient id="roofGrad7" x1="0%" y1="0%" x2="100%" y2="100%">
      <stop offset="0%" style="stop-color:#FF6F00;stop-opacity:1" />
      <stop offset="100%" style="stop-color:#E65100;stop-opacity:1" />
    </linearGradient>
  </defs>
  
  <!-- Background -->
  <rect width="300" height="200" fill="#E3F2FD"/>
  
  <!-- Ground -->
  <rect x="0" y="140" width="300" height="60" fill="#E8F5E8"/>
  
  <!-- Traditional GP Practice -->
  <rect x="50" y="60" width="200" height="80" fill="url(#buildingGrad7)" stroke="#FF6F00" stroke-width="2"/>
  
  <!-- Traditional Pitched Roof -->
  <polygon points="45,60 150,30 255,60" fill="url(#roofGrad7)" stroke="#E65100" stroke-width="2"/>
  
  <!-- Chimney -->
  <rect x="200" y="35" width="8" height="25" fill="#8D6E63" stroke="#5D4037" stroke-width="1"/>
  <rect x="198" y="33" width="12" height="4" fill="#A1887F"/>
  
  <!-- Front Door -->
  <rect x="140" y="110" width="20" height="30" fill="#8D6E63" stroke="#5D4037" stroke-width="2" rx="10" ry="0"/>
  <circle cx="155" cy="125" r="1" fill="#FFD54F"/>
  
  <!-- Windows -->
  <rect x="70" y="80" width="25" height="20" fill="#E3F2FD" stroke="#FF6F00" stroke-width="2"/>
  <rect x="205" y="80" width="25" height="20" fill="#E3F2FD" stroke="#FF6F00" stroke-width="2"/>
  <rect x="110" y="80" width="25" height="20" fill="#E3F2FD" stroke="#FF6F00" stroke-width="2"/>
  <rect x="165" y="80" width="25" height="20" fill="#E3F2FD" stroke="#FF6F00" stroke-width="2"/>
  
  <!-- Window Crosses -->
  <line x1="82.5" y1="80" x2="82.5" y2="100" stroke="#FF6F00" stroke-width="1"/>
  <line x1="70" y1="90" x2="95" y2="90" stroke="#FF6F00" stroke-width="1"/>
  
  <line x1="217.5" y1="80" x2="217.5" y2="100" stroke="#FF6F00" stroke-width="1"/>
  <line x1="205" y1="90" x2="230" y2="90" stroke="#FF6F00" stroke-width="1"/>
  
  <line x1="122.5" y1="80" x2="122.5" y2="100" stroke="#FF6F00" stroke-width="1"/>
  <line x1="110" y1="90" x2="135" y2="90" stroke="#FF6F00" stroke-width="1"/>
  
  <line x1="177.5" y1="80" x2="177.5" y2="100" stroke="#FF6F00" stroke-width="1"/>
  <line x1="165" y1="90" x2="190" y2="90" stroke="#FF6F00" stroke-width="1"/>
  
  <!-- Practice Sign -->
  <rect x="80" y="105" width="140" height="12" fill="#FFFFFF" stroke="#FF6F00" stroke-width="1" rx="6"/>
  <text x="150" y="113" text-anchor="middle" font-family="Arial, sans-serif" font-size="8" fill="#FF6F00" font-weight="bold">FAMILY MEDICAL PRACTICE</text>
  
  <!-- Medical Cross -->
  <rect x="60" y="108" width="8" height="6" fill="#F44336"/>
  <rect x="62" y="106" width="4" height="10" fill="#F44336"/>
  
  <!-- Garden -->
  <ellipse cx="30" cy="160" rx="20" ry="15" fill="#4CAF50"/>
  <circle cx="25" cy="155" r="6" fill="#66BB6A"/>
  <circle cx="35" cy="150" r="4" fill="#66BB6A"/>
  
  <ellipse cx="270" cy="165" rx="15" ry="12" fill="#4CAF50"/>
  <circle cx="275" cy="160" r="5" fill="#66BB6A"/>
  
  <!-- Fence -->
  <rect x="20" y="145" width="2" height="15" fill="#8D6E63"/>
  <rect x="25" y="145" width="2" height="15" fill="#8D6E63"/>
  <rect x="30" y="145" width="2" height="15" fill="#8D6E63"/>
  <rect x="35" y="145" width="2" height="15" fill="#8D6E63"/>
  <rect x="20" y="150" width="17" height="2" fill="#8D6E63"/>
  
  <!-- Pathway -->
  <rect x="120" y="140" width="60" height="6" fill="#90A4AE"/>
  
  <!-- Sun -->
  <circle cx="250" cy="40" r="15" fill="#FFC107" opacity="0.8"/>
  <line x1="235" y1="40" x2="245" y2="40" stroke="#FFC107" stroke-width="2"/>
  <line x1="255" y1="40" x2="265" y2="40" stroke="#FFC107" stroke-width="2"/>
  <line x1="250" y1="25" x2="250" y2="35" stroke="#FFC107" stroke-width="2"/>
  <line x1="250" y1="45" x2="250" y2="55" stroke="#FFC107" stroke-width="2"/>
  
  <!-- Clouds -->
  <ellipse cx="100" cy="25" rx="20" ry="8" fill="#FFFFFF" opacity="0.9"/>
</svg>