<svg width="300" height="200" viewBox="0 0 300 200" xmlns="http://www.w3.org/2000/svg">
  <defs>
    <linearGradient id="buildingGrad6" x1="0%" y1="0%" x2="100%" y2="100%">
      <stop offset="0%" style="stop-color:#E0F2F1;stop-opacity:1" />
      <stop offset="100%" style="stop-color:#B2DFDB;stop-opacity:1" />
    </linearGradient>
    <linearGradient id="roofGrad6" x1="0%" y1="0%" x2="100%" y2="100%">
      <stop offset="0%" style="stop-color:#009688;stop-opacity:1" />
      <stop offset="100%" style="stop-color:#00695C;stop-opacity:1" />
    </linearGradient>
  </defs>
  
  <!-- Background -->
  <rect width="300" height="200" fill="#F0F8FF"/>
  
  <!-- Ground -->
  <rect x="0" y="150" width="300" height="50" fill="#E8F5E8"/>
  
  <!-- Aesthetic Clinic Building -->
  <rect x="70" y="70" width="160" height="80" fill="url(#buildingGrad6)" stroke="#009688" stroke-width="2" rx="8"/>
  
  <!-- Modern Flat Roof -->
  <rect x="65" y="65" width="170" height="8" fill="url(#roofGrad6)" stroke="#004D40" stroke-width="1" rx="4"/>
  
  <!-- Large Glass Windows -->
  <rect x="85" y="85" width="50" height="35" fill="#E8EAF6" stroke="#009688" stroke-width="2" rx="3"/>
  <rect x="165" y="85" width="50" height="35" fill="#E8EAF6" stroke="#009688" stroke-width="2" rx="3"/>
  
  <!-- Entrance -->
  <rect x="135" y="120" width="30" height="30" fill="#FFFFFF" stroke="#009688" stroke-width="2" rx="2"/>
  
  <!-- Glass Door -->
  <rect x="140" y="125" width="20" height="25" fill="#E8EAF6" stroke="#009688" stroke-width="1"/>
  <line x1="150" y1="125" x2="150" y2="150" stroke="#009688" stroke-width="1"/>
  <circle cx="145" cy="137" r="1" fill="#009688"/>
  
  <!-- Aesthetic Clinic Sign -->
  <rect x="90" y="75" width="120" height="8" fill="#FFFFFF" stroke="#009688" stroke-width="1" rx="4"/>
  <text x="150" y="81" text-anchor="middle" font-family="Arial, sans-serif" font-size="6" fill="#009688" font-weight="bold">AESTHETIC WELLNESS CLINIC</text>
  
  <!-- Beauty Icon -->
  <circle cx="80" cy="79" r="4" fill="#FFFFFF" stroke="#009688" stroke-width="1"/>
  <path d="M 78 77 Q 80 75 82 77 Q 80 79 78 77" fill="#009688"/>
  <circle cx="80" cy="81" r="1" fill="#009688"/>
  
  <!-- Window Reflections -->
  <rect x="87" y="87" width="15" height="10" fill="#FFFFFF" opacity="0.3"/>
  <rect x="167" y="87" width="15" height="10" fill="#FFFFFF" opacity="0.3"/>
  
  <!-- Decorative Plants -->
  <rect x="125" y="145" width="6" height="8" fill="#8D6E63"/>
  <ellipse cx="128" cy="142" rx="8" ry="5" fill="#4CAF50"/>
  
  <rect x="169" y="145" width="6" height="8" fill="#8D6E63"/>
  <ellipse cx="172" cy="142" rx="8" ry="5" fill="#4CAF50"/>
  
  <!-- Parking Spaces -->
  <rect x="20" y="160" width="40" height="25" fill="#90A4AE" stroke="#607D8B" stroke-width="1"/>
  <line x1="20" y1="172" x2="60" y2="172" stroke="#FFFFFF" stroke-width="1" stroke-dasharray="4,4"/>
  
  <!-- Luxury Car -->
  <rect x="25" y="165" width="20" height="8" fill="#424242" rx="2"/>
  <circle cx="30" cy="175" r="2" fill="#212121"/>
  <circle cx="40" cy="175" r="2" fill="#212121"/>
  <rect x="27" y="167" width="4" height="3" fill="#E3F2FD"/>
  <rect x="35" y="167" width="4" height="3" fill="#E3F2FD"/>
  
  <!-- Sidewalk -->
  <rect x="60" y="150" width="180" height="5" fill="#BDBDBD"/>
  
  <!-- Street Lamp -->
  <rect x="250" y="130" width="3" height="25" fill="#424242"/>
  <circle cx="251.5" cy="128" r="4" fill="#FFC107" opacity="0.8"/>
  
  <!-- Clouds -->
  <ellipse cx="80" cy="25" rx="18" ry="8" fill="#FFFFFF" opacity="0.9"/>
  <ellipse cx="220" cy="20" rx="15" ry="6" fill="#FFFFFF" opacity="0.9"/>
</svg>