<svg width="300" height="200" viewBox="0 0 300 200" xmlns="http://www.w3.org/2000/svg">
  <defs>
    <linearGradient id="buildingGrad3" x1="0%" y1="0%" x2="100%" y2="100%">
      <stop offset="0%" style="stop-color:#E8F5E8;stop-opacity:1" />
      <stop offset="100%" style="stop-color:#C8E6C9;stop-opacity:1" />
    </linearGradient>
    <linearGradient id="roofGrad3" x1="0%" y1="0%" x2="100%" y2="100%">
      <stop offset="0%" style="stop-color:#4CAF50;stop-opacity:1" />
      <stop offset="100%" style="stop-color:#388E3C;stop-opacity:1" />
    </linearGradient>
  </defs>
  
  <!-- Background -->
  <rect width="300" height="200" fill="#F0F8FF"/>
  
  <!-- Ground -->
  <rect x="0" y="160" width="300" height="40" fill="#E8F5E8"/>
  
  <!-- Main Building -->
  <rect x="50" y="80" width="200" height="80" fill="url(#buildingGrad3)" stroke="#4CAF50" stroke-width="2"/>
  
  <!-- Roof -->
  <polygon points="40,80 150,40 260,80" fill="url(#roofGrad3)" stroke="#2E7D32" stroke-width="2"/>
  
  <!-- Entrance -->
  <rect x="130" y="120" width="40" height="40" fill="#FFFFFF" stroke="#4CAF50" stroke-width="2"/>
  
  <!-- Door -->
  <rect x="140" y="135" width="20" height="25" fill="#4CAF50" rx="2"/>
  
  <!-- Windows -->
  <rect x="70" y="100" width="25" height="20" fill="#E3F2FD" stroke="#4CAF50" stroke-width="1"/>
  <rect x="105" y="100" width="25" height="20" fill="#E3F2FD" stroke="#4CAF50" stroke-width="1"/>
  <rect x="170" y="100" width="25" height="20" fill="#E3F2FD" stroke="#4CAF50" stroke-width="1"/>
  <rect x="205" y="100" width="25" height="20" fill="#E3F2FD" stroke="#4CAF50" stroke-width="1"/>
  
  <!-- Window Crosses -->
  <line x1="82.5" y1="100" x2="82.5" y2="120" stroke="#4CAF50" stroke-width="1"/>
  <line x1="70" y1="110" x2="95" y2="110" stroke="#4CAF50" stroke-width="1"/>
  <line x1="117.5" y1="100" x2="117.5" y2="120" stroke="#4CAF50" stroke-width="1"/>
  <line x1="105" y1="110" x2="130" y2="110" stroke="#4CAF50" stroke-width="1"/>
  <line x1="182.5" y1="100" x2="182.5" y2="120" stroke="#4CAF50" stroke-width="1"/>
  <line x1="170" y1="110" x2="195" y2="110" stroke="#4CAF50" stroke-width="1"/>
  <line x1="217.5" y1="100" x2="217.5" y2="120" stroke="#4CAF50" stroke-width="1"/>
  <line x1="205" y1="110" x2="230" y2="110" stroke="#4CAF50" stroke-width="1"/>
  
  <!-- Medical Cross Sign -->
  <circle cx="80" cy="70" r="15" fill="#FFFFFF" stroke="#4CAF50" stroke-width="2"/>
  <rect x="75" y="62" width="10" height="16" fill="#4CAF50"/>
  <rect x="71" y="66" width="18" height="8" fill="#4CAF50"/>
  
  <!-- Trees -->
  <circle cx="25" cy="140" r="20" fill="#66BB6A"/>
  <rect x="22" y="140" width="6" height="20" fill="#8D6E63"/>
  
  <circle cx="275" cy="145" r="15" fill="#66BB6A"/>
  <rect x="272" y="145" width="6" height="15" fill="#8D6E63"/>
  
  <!-- Clouds -->
  <ellipse cx="80" cy="25" rx="15" ry="8" fill="#FFFFFF" opacity="0.8"/>
  <ellipse cx="220" cy="20" rx="20" ry="10" fill="#FFFFFF" opacity="0.8"/>
</svg>