<svg width="300" height="200" viewBox="0 0 300 200" fill="none" xmlns="http://www.w3.org/2000/svg">
  <defs>
    <linearGradient id="clinicBg9" x1="0%" y1="0%" x2="100%" y2="100%">
      <stop offset="0%" style="stop-color:#F0F8FF;stop-opacity:1" />
      <stop offset="100%" style="stop-color:#E6F0FF;stop-opacity:1" />
    </linearGradient>
  </defs>
  
  <!-- Background -->
  <rect width="300" height="200" fill="url(#clinicBg9)"/>
  
  <!-- Building silhouette -->
  <rect x="40" y="70" width="220" height="130" fill="#2A6EF3" opacity="0.1"/>
  <rect x="60" y="50" width="180" height="150" fill="#2A6EF3" opacity="0.15"/>
  
  <!-- Windows -->
  <rect x="80" y="70" width="25" height="30" fill="#2A6EF3" opacity="0.3" rx="3"/>
  <rect x="115" y="70" width="25" height="30" fill="#2A6EF3" opacity="0.3" rx="3"/>
  <rect x="150" y="70" width="25" height="30" fill="#2A6EF3" opacity="0.3" rx="3"/>
  <rect x="185" y="70" width="25" height="30" fill="#2A6EF3" opacity="0.3" rx="3"/>
  
  <rect x="80" y="115" width="25" height="30" fill="#2A6EF3" opacity="0.3" rx="3"/>
  <rect x="115" y="115" width="25" height="30" fill="#2A6EF3" opacity="0.3" rx="3"/>
  <rect x="150" y="115" width="25" height="30" fill="#2A6EF3" opacity="0.3" rx="3"/>
  <rect x="185" y="115" width="25" height="30" fill="#2A6EF3" opacity="0.3" rx="3"/>
  
  <!-- Door -->
  <rect x="130" y="155" width="40" height="45" fill="#2A6EF3" opacity="0.4" rx="4"/>
  
  <!-- Medical cross sign -->
  <circle cx="230" cy="90" r="18" fill="#27AE60" opacity="0.8"/>
  <rect x="226" y="81" width="8" height="18" fill="white" rx="1"/>
  <rect x="221" y="86" width="18" height="8" fill="white" rx="1"/>
  
  <!-- Text overlay -->
  <text x="150" y="25" text-anchor="middle" fill="#2A6EF3" font-family="Arial, sans-serif" font-size="14" font-weight="600">Healthcare Centre</text>
</svg>