<svg width="300" height="200" viewBox="0 0 300 200" fill="none" xmlns="http://www.w3.org/2000/svg">
  <defs>
    <linearGradient id="clinicBg2" x1="0%" y1="0%" x2="100%" y2="100%">
      <stop offset="0%" style="stop-color:#F0F8FF;stop-opacity:1" />
      <stop offset="100%" style="stop-color:#E6F0FF;stop-opacity:1" />
    </linearGradient>
  </defs>
  
  <!-- Background -->
  <rect width="300" height="200" fill="url(#clinicBg2)"/>
  
  <!-- Building silhouette -->
  <rect x="40" y="70" width="220" height="130" fill="#1E5AD1" opacity="0.1"/>
  <rect x="60" y="50" width="180" height="150" fill="#1E5AD1" opacity="0.15"/>
  
  <!-- Modern building elements -->
  <rect x="80" y="70" width="140" height="4" fill="#1E5AD1" opacity="0.3"/>
  <rect x="80" y="90" width="140" height="4" fill="#1E5AD1" opacity="0.3"/>
  <rect x="80" y="110" width="140" height="4" fill="#1E5AD1" opacity="0.3"/>
  <rect x="80" y="130" width="140" height="4" fill="#1E5AD1" opacity="0.3"/>
  
  <!-- Glass panels -->
  <rect x="85" y="75" width="30" height="40" fill="#2A6EF3" opacity="0.2" rx="2"/>
  <rect x="125" y="75" width="30" height="40" fill="#2A6EF3" opacity="0.2" rx="2"/>
  <rect x="165" y="75" width="30" height="40" fill="#2A6EF3" opacity="0.2" rx="2"/>
  
  <rect x="85" y="125" width="30" height="40" fill="#2A6EF3" opacity="0.2" rx="2"/>
  <rect x="125" y="125" width="30" height="40" fill="#2A6EF3" opacity="0.2" rx="2"/>
  <rect x="165" y="125" width="30" height="40" fill="#2A6EF3" opacity="0.2" rx="2"/>
  
  <!-- Entrance -->
  <rect x="130" y="170" width="40" height="30" fill="#1E5AD1" opacity="0.4" rx="3"/>
  
  <!-- Dental symbol -->
  <circle cx="230" cy="90" r="18" fill="#2A6EF3" opacity="0.8"/>
  <path d="M230 78 C235 78 240 83 240 90 C240 97 235 102 230 102 C225 102 220 97 220 90 C220 83 225 78 230 78 Z" fill="white"/>
  <circle cx="230" cy="90" r="8" fill="#2A6EF3"/>
  
  <!-- Text overlay -->
  <text x="150" y="30" text-anchor="middle" fill="#1E5AD1" font-family="Arial, sans-serif" font-size="16" font-weight="600">Bolton Dental Practice</text>
</svg>